<?xml version="1.0" encoding="UTF-8" standalone="no"?><!DOCTYPE svg PUBLIC "-//W3C//DTD SVG 1.1//EN" "http://www.w3.org/Graphics/SVG/1.1/DTD/svg11.dtd"><svg width="100%" height="100%" viewBox="0 0 363 364" version="1.1" xmlns="http://www.w3.org/2000/svg" xmlns:xlink="http://www.w3.org/1999/xlink" xml:space="preserve" xmlns:serif="http://www.serif.com/" style="fill-rule:evenodd;clip-rule:evenodd;stroke-linejoin:round;stroke-miterlimit:2;"><path d="M138.803,363.049c-1.94,-0.001 -20.049,0.805 -19.994,-1.405c0.201,-8.089 13.883,-54.778 9.063,-55.331c-172.248,-19.736 -148.751,-194.609 -56.797,-270.328c3.943,-3.247 47.232,-38.893 55.318,-31.873c20.693,17.963 21.101,18.707 19.942,20.195c-14.736,18.898 -75.252,81.348 -61.078,192.283c6.889,53.919 50.786,60.016 52.315,55.941c10.135,-27 30.738,-198.454 61.537,-244.649c36.478,-54.713 186.754,-36.1 160.6,120.751c-27.977,167.784 -194.206,155.18 -196.496,158.441c-2.04,2.906 -10.586,55.73 -13.321,55.853c-3.692,0.166 -7.395,-0.044 -11.088,0.122Zm41.021,-90.017c15.649,-2.823 57.393,-4.58 87.592,-88.52c13.282,-36.919 20.791,-105.412 10.539,-134.921c-8.531,-24.556 -44.848,-33.875 -61.895,14.154c-12.923,36.409 -42.295,191.163 -45.469,207.889c-0.718,3.782 1.776,1.717 9.233,1.398Z" style="fill:url(#_Linear1);"/><defs><linearGradient id="_Linear1" x1="0" y1="0" x2="1" y2="0" gradientUnits="userSpaceOnUse" gradientTransform="matrix(-362.745973,363.191632,-363.191632,-362.745973,362.745973,0)"><stop offset="0" style="stop-color:#8cb0d5;stop-opacity:1"/><stop offset="1" style="stop-color:#195290;stop-opacity:1"/></linearGradient></defs></svg>